<svg width="74" height="75" viewBox="0 0 74 75" fill="none" xmlns="http://www.w3.org/2000/svg">
<path fill-rule="evenodd" clip-rule="evenodd" d="M21.2881 29.8958C17.5254 25.2451 14.4434 20.805 12.1954 16.8582C10.649 14.1433 9.52972 11.7178 8.84446 9.65732C11.043 10.3113 13.703 11.5025 16.7206 13.2212C20.5322 15.3922 24.8038 18.341 29.281 21.9296C27.8613 23.2523 26.4384 24.6253 25.0191 26.0445C23.7367 27.327 22.492 28.6125 21.2881 29.8958ZM19.9149 31.3778C18.5002 32.9238 17.1465 34.4637 15.8591 35.9883C12.1419 31.3828 9.09478 26.9867 6.8668 23.075C4.78466 19.4194 3.47679 16.2887 2.96021 13.8672C2.42199 11.3443 2.84879 10.1695 3.33192 9.68634C3.75253 9.26573 4.6974 8.88781 6.59968 9.1522C8.16257 14.7988 12.9231 22.7728 19.9149 31.3778ZM6.15766 7.09454C4.30915 6.9542 2.86224 7.32759 1.91771 8.27212C-1.88711 12.0769 3.57578 24.0337 14.5546 37.5555C3.27979 51.2996 -2.38198 63.5271 1.47378 67.3829C2.55047 68.4595 4.27996 68.7941 6.51299 68.4715C6.37265 70.32 6.74604 71.7669 7.69057 72.7115C11.4954 76.5163 23.4521 71.0535 36.9738 60.0748C50.718 71.3497 62.9456 77.0116 66.8014 73.1558C67.8781 72.0791 68.2126 70.3496 67.89 68.1166C69.7386 68.2569 71.1855 67.8835 72.13 66.939C75.9348 63.1342 70.4719 51.1774 59.4931 37.6556C70.7681 23.9113 76.4301 11.6836 72.5743 7.82779C71.4976 6.7511 69.7681 6.41655 67.535 6.73913C67.6754 4.89062 67.302 3.44371 66.3575 2.49918C62.5526 -1.30566 50.5957 4.15732 37.0738 15.1363C23.3296 3.86139 11.1021 -1.80044 7.24632 2.05533C6.16963 3.13202 5.83508 4.86151 6.15766 7.09454ZM8.24328 7.42856C13.823 8.72806 21.9464 13.4553 30.7694 20.56C32.357 19.1175 33.9372 17.7399 35.5002 16.433C30.6993 12.5175 26.1128 9.31896 22.0492 7.00442C18.3936 4.92228 15.2628 3.61441 12.8414 3.09783C10.3185 2.55961 9.14366 2.98641 8.66053 3.46954C8.19179 3.93828 7.77607 5.05812 8.24328 7.42856ZM37.0674 17.7303C35.5066 19.0284 33.9258 20.4001 32.3353 21.8398C33.8758 23.1176 35.434 24.4647 37.0004 25.8757C38.575 24.4453 40.1425 23.0788 41.693 21.7817C40.1396 20.3653 38.5945 19.013 37.0674 17.7303ZM43.1747 23.15C41.6274 24.4396 40.0606 25.8013 38.4845 27.2297C40.0731 28.6972 41.6669 30.2283 43.256 31.8175C44.6834 33.2448 46.0639 34.6759 47.3936 36.1036C48.8062 34.5316 50.1519 32.97 51.4251 31.4289C50.0615 29.9603 48.6418 28.4863 47.1704 27.0149C45.8387 25.6832 44.5048 24.3938 43.1747 23.15ZM52.6997 29.8627C51.377 28.443 50.004 27.02 48.5847 25.6007C47.3022 24.3183 46.0168 23.0737 44.7336 21.8698C49.3844 18.107 53.8245 15.0249 57.7713 12.7769C60.4863 11.2305 62.9118 10.1112 64.9723 9.42594C64.3183 11.6245 63.1271 14.2845 61.4084 17.3021C59.2373 21.1138 56.2885 25.3855 52.6997 29.8627ZM52.7895 32.9171C51.5118 34.4576 50.1647 36.0158 48.7536 37.5821C50.184 39.1568 51.5506 40.7242 52.8476 42.2748C54.2641 40.7213 55.6163 39.1762 56.8991 37.6491C55.6009 36.0884 54.2292 34.5076 52.7895 32.9171ZM58.1964 36.082C56.8894 34.519 55.5119 32.9387 54.0694 31.3512C61.1742 22.528 65.9015 14.4045 67.201 8.82475C69.5715 8.35755 70.6913 8.77326 71.16 9.242C71.6432 9.72513 72.07 10.8999 71.5317 13.4229C71.0152 15.8443 69.7073 18.9751 67.6252 22.6307C65.3106 26.6944 62.1119 31.281 58.1964 36.082ZM58.1886 39.2228C56.9011 40.7474 55.5475 42.2873 54.1328 43.8333C61.1246 52.4383 65.8851 60.4123 67.448 66.0589C69.3503 66.3233 70.2952 65.9454 70.7158 65.5248C71.1989 65.0417 71.6257 63.8669 71.0875 61.3439C70.5709 58.9225 69.263 55.7917 67.1809 52.1361C64.9529 48.2244 61.9058 43.8283 58.1886 39.2228ZM65.2032 65.5538C64.518 63.4934 63.3987 61.0679 61.8523 58.3529C59.6043 54.4061 56.5223 49.966 52.7596 45.3153C51.5558 46.5985 50.3112 47.8838 49.0289 49.1661C47.6095 50.5855 46.1864 51.9586 44.7667 53.2814C49.2438 56.8701 53.5155 59.8189 57.3271 61.9899C60.3447 63.7087 63.0047 64.8998 65.2032 65.5538ZM43.2005 52.0068C44.6691 50.6431 46.1432 49.2234 47.6147 47.7519C48.9463 46.4203 50.2356 45.0865 51.4793 43.7565C50.1897 42.2092 48.828 40.6424 47.3997 39.0662C45.9322 40.6547 44.4012 42.2484 42.8121 43.8375C41.3847 45.2649 39.9535 46.6455 38.5258 47.9753C40.0977 49.3879 41.6593 50.7336 43.2005 52.0068ZM37.0472 49.3353C38.6136 50.7464 40.1718 52.0935 41.7123 53.3712C40.1218 54.8109 38.5409 56.1826 36.9802 57.4808C35.4531 56.198 33.908 54.8458 32.3546 53.4293C33.9051 52.1322 35.4726 50.7657 37.0472 49.3353ZM37.0416 46.6243C38.4911 45.2771 39.9458 43.8754 41.3979 42.4233C43.0101 40.8111 44.5603 39.1956 46.0426 37.5877C44.6955 36.1383 43.2938 34.6837 41.8418 33.2317C40.2295 31.6194 38.614 30.0691 37.006 28.5867C35.5566 29.9338 34.1021 31.3354 32.6501 32.7874C31.0378 34.3997 29.4875 36.0153 28.005 37.6234C29.3521 39.0728 30.7538 40.5274 32.2059 41.9795C33.8182 43.5917 35.4336 45.142 37.0416 46.6243ZM26.6541 39.1075C27.9837 40.5352 29.3643 41.9663 30.7917 43.3937C32.3808 44.9828 33.9746 46.5139 35.5631 47.9813C33.9869 49.4097 32.4202 50.7714 30.8728 52.061C29.5428 50.8173 28.2089 49.5279 26.8773 48.1962C25.4059 46.7249 23.9862 45.2508 22.6226 43.7822C23.8958 42.2411 25.2414 40.6795 26.6541 39.1075ZM25.294 37.6289C23.883 39.1953 22.5359 40.7535 21.2582 42.294C19.8185 40.7035 18.4467 39.1227 17.1486 37.5619C18.4314 36.0348 19.7836 34.4897 21.2 32.9363C22.4971 34.4869 23.8636 36.0543 25.294 37.6289ZM26.648 36.1448C25.2196 34.5687 23.8579 33.0019 22.5683 31.4546C23.8121 30.1245 25.1016 28.7905 26.4333 27.4587C27.9046 25.9874 29.3786 24.5678 30.8471 23.2043C32.3883 24.4774 33.9499 25.8231 35.5218 27.2358C34.0942 28.5654 32.6632 29.9459 31.2359 31.3731C29.6467 32.9624 28.1155 34.5562 26.648 36.1448ZM43.2781 54.6511C52.1013 61.7558 60.2247 66.4831 65.8044 67.7826C66.2716 70.153 65.8559 71.2729 65.3872 71.7416C64.904 72.2247 63.7292 72.6515 61.2063 72.1133C58.7849 71.5967 55.6541 70.2889 51.9985 68.2067C47.9348 65.8922 43.3483 62.6935 38.5473 58.778C40.1104 57.4711 41.6906 56.0936 43.2781 54.6511ZM43.2516 20.4966C41.7056 19.0819 40.1657 17.7282 38.641 16.4408C43.2466 12.7235 47.6428 9.67629 51.5545 7.44827C55.2101 5.36613 58.3409 4.05826 60.7624 3.54169C63.2853 3.00346 64.4601 3.43026 64.9432 3.91339C65.3639 4.334 65.7418 5.27887 65.4774 7.18115C59.8307 8.74406 51.8566 13.5046 43.2516 20.4966ZM25.4631 49.6105C26.7454 50.8928 28.0308 52.1374 29.314 53.3412C24.6634 57.1039 20.2234 60.1858 16.2767 62.4338C13.5617 63.9802 11.1362 65.0995 9.07577 65.7847C9.72976 63.5861 10.9209 60.9261 12.6397 57.9086C14.8106 54.097 17.7594 49.8255 21.3479 45.3484C22.6707 46.7681 24.0437 48.1911 25.4631 49.6105ZM19.9783 43.8599C18.5358 42.2724 17.1583 40.6921 15.8513 39.1291C11.9359 43.93 8.73738 48.5164 6.42287 52.5799C4.34073 56.2355 3.03286 59.3663 2.51628 61.7878C1.97806 64.3107 2.40486 65.4855 2.88799 65.9686C3.35673 66.4374 4.47657 66.8531 6.84701 66.3859C8.1465 60.8062 12.8737 52.6829 19.9783 43.8599ZM30.796 54.7144C32.342 56.1291 33.8819 57.4828 35.4066 58.7703C30.8011 62.4874 26.4051 65.5344 22.4935 67.7624C18.8379 69.8445 15.7071 71.1524 13.2857 71.669C10.7627 72.2072 9.58792 71.7804 9.10479 71.2973C8.68417 70.8766 8.30626 69.9318 8.57065 68.0295C14.2172 66.4666 22.1912 61.7062 30.796 54.7144Z" fill="#534EE8"/>
</svg>
