<svg width="75" height="75" viewBox="0 0 75 75" fill="none" xmlns="http://www.w3.org/2000/svg">
<path d="M37.8424 37.6055C34.1897 25.6037 29.0759 1.6001 37.8424 1.6001" stroke="#534EE8" stroke-width="2"/>
<path d="M37.8431 37.6055C41.4959 25.6037 46.6097 1.6001 37.8431 1.6001" stroke="#534EE8" stroke-width="2"/>
<path d="M37.8424 37.6055C34.1897 49.6073 29.0759 73.6108 37.8424 73.6108" stroke="#534EE8" stroke-width="2"/>
<path d="M37.8431 37.6055C41.4959 49.6073 46.6097 73.6108 37.8431 73.6108" stroke="#534EE8" stroke-width="2"/>
<path d="M37.843 37.605C43.7466 26.5356 57.1037 5.9465 63.3026 12.1454" stroke="#534EE8" stroke-width="2"/>
<path d="M37.8432 37.6058C48.9126 31.7021 69.5017 18.345 63.3029 12.1461" stroke="#534EE8" stroke-width="2"/>
<path d="M37.8433 37.6052C26.7739 43.5089 6.18478 56.8659 12.3837 63.0648" stroke="#534EE8" stroke-width="2"/>
<path d="M37.8436 37.6059C31.9399 48.6753 18.5828 69.2644 12.3839 63.0656" stroke="#534EE8" stroke-width="2"/>
<path d="M37.8433 37.6051C49.8451 33.9524 73.8486 28.8386 73.8486 37.6051" stroke="#534EE8" stroke-width="2"/>
<path d="M37.8433 37.6058C49.8451 41.2586 73.8486 46.3724 73.8486 37.6058" stroke="#534EE8" stroke-width="2"/>
<path d="M37.8433 37.6051C25.8415 33.9524 1.83789 28.8386 1.83789 37.6051" stroke="#534EE8" stroke-width="2"/>
<path d="M37.8433 37.6058C25.8415 41.2586 1.83789 46.3724 1.83789 37.6058" stroke="#534EE8" stroke-width="2"/>
<path d="M37.8432 37.6052C48.9126 43.5089 69.5017 56.8659 63.3029 63.0648" stroke="#534EE8" stroke-width="2"/>
<path d="M37.843 37.6059C43.7466 48.6753 57.1037 69.2644 63.3026 63.0656" stroke="#534EE8" stroke-width="2"/>
<path d="M37.8436 37.605C31.9399 26.5356 18.5828 5.9465 12.3839 12.1454" stroke="#534EE8" stroke-width="2"/>
<path d="M37.8433 37.6058C26.7739 31.7021 6.18478 18.345 12.3837 12.1461" stroke="#534EE8" stroke-width="2"/>
</svg>
