<svg width="74" height="74" viewBox="0 0 74 74" fill="none" xmlns="http://www.w3.org/2000/svg">
<path d="M34.314 1H33.314V2V28.1375L14.8319 9.65547L14.1248 8.94837L13.4177 9.65547L9.87179 13.2014L9.16468 13.9085L9.87179 14.6156L28.3544 33.0981L2.21582 33.0981H1.21582V34.0981L1.21582 39.1128V40.1128H2.21582H28.3539L9.87178 58.5949L9.16468 59.302L9.87178 60.0091L13.4177 63.555L14.1248 64.2621L14.8319 63.555L33.314 45.0729V71.2104V72.2104H34.314H39.3286H40.3286V71.2104V45.0724L58.811 63.5548L59.5181 64.2619L60.2252 63.5548L63.7711 60.0089L64.4782 59.3018L63.7711 58.5947L45.2892 40.1128H71.4263H72.4263V39.1128V34.0981V33.0981H71.4263L45.2887 33.0981L63.7711 14.6158L64.4782 13.9087L63.7711 13.2016L60.2252 9.65569L59.5181 8.94858L58.811 9.65569L40.3286 28.138V2V1H39.3286H34.314Z" stroke="#534EE8" stroke-width="2"/>
</svg>
