<svg width="27" height="28" viewBox="0 0 27 28" fill="none" xmlns="http://www.w3.org/2000/svg">
<path fill-rule="evenodd" clip-rule="evenodd" d="M24.2541 13.8232C25.8039 12.21 26.5439 9.88483 26.5439 7.98438C26.5439 4.71634 24.3555 0.192383 19.6245 0.192383C16.6083 0.192383 14.6256 2.03119 13.5845 4.21103C12.5434 2.03119 10.5606 0.192383 7.54443 0.192383C2.81346 0.192383 0.625 4.71634 0.625 7.98438C0.625 9.88483 1.36508 12.21 2.91488 13.8232C1.36508 15.4365 0.625 17.7617 0.625 19.6621C0.625 22.9301 2.81346 27.4541 7.54443 27.4541C10.5606 27.4541 12.5434 25.6153 13.5845 23.4355C14.6256 25.6153 16.6083 27.4541 19.6245 27.4541C24.3555 27.4541 26.5439 22.9301 26.5439 19.6621C26.5439 17.7617 25.8039 15.4365 24.2541 13.8232ZM12.174 13.8232C12.7578 14.431 13.2267 15.1397 13.5845 15.8888C13.9422 15.1397 14.4111 14.431 14.995 13.8232C14.4111 13.2155 13.9422 12.5068 13.5845 11.7577C13.2267 12.5068 12.7578 13.2155 12.174 13.8232ZM7.54443 11.7764C8.66096 11.7764 9.6311 10.9623 10.1222 9.76611H17.0468C17.5379 10.9623 18.508 11.7764 19.6245 11.7764C21.2369 11.7764 22.5439 10.0786 22.5439 7.98438C22.5439 5.89012 21.2369 4.19238 19.6245 4.19238C18.5079 4.19238 17.5377 5.00661 17.0467 6.20288H10.1223C9.63123 5.00661 8.66104 4.19238 7.54443 4.19238C5.93208 4.19238 4.625 5.89012 4.625 7.98438C4.625 10.0786 5.93208 11.7764 7.54443 11.7764ZM7.54443 23.4541C8.66096 23.4541 9.6311 22.64 10.1222 21.4438H17.0468C17.5379 22.64 18.508 23.4541 19.6245 23.4541C21.2369 23.4541 22.5439 21.7564 22.5439 19.6621C22.5439 17.5679 21.2369 15.8701 19.6245 15.8701C18.5079 15.8701 17.5377 16.6843 17.0467 17.8806H10.1223C9.63123 16.6843 8.66104 15.8701 7.54443 15.8701C5.93208 15.8701 4.625 17.5679 4.625 19.6621C4.625 21.7564 5.93208 23.4541 7.54443 23.4541Z" fill="#534EE8"/>
<path d="M11.1348 10.9658H16.7051V16.3472H11.1348V10.9658Z" fill="#534EE8"/>
</svg>
