<svg width="141" height="29" viewBox="0 0 141 29" fill="none" xmlns="http://www.w3.org/2000/svg">
<path d="M43.1265 10.2516C42.9951 10.107 42.8046 9.95592 42.5549 9.79824C42.3052 9.62742 42.0096 9.46974 41.6679 9.3252C41.3263 9.18066 40.9584 9.0624 40.5642 8.97042C40.17 8.87844 39.7626 8.83245 39.3422 8.83245C38.4224 8.83245 37.7391 9.00327 37.2923 9.34491C36.8456 9.68655 36.6222 10.1596 36.6222 10.764C36.6222 11.2108 36.747 11.5656 36.9967 11.8284C37.2463 12.078 37.6274 12.2883 38.1399 12.4591C38.6523 12.6299 39.2962 12.8139 40.0714 13.011C41.0175 13.2343 41.8388 13.5037 42.5352 13.8191C43.2316 14.1213 43.7638 14.5286 44.1317 15.0411C44.4996 15.5536 44.6836 16.2303 44.6836 17.0712C44.6836 17.7808 44.5522 18.3918 44.2894 18.9043C44.0266 19.4167 43.6587 19.8372 43.1856 20.1657C42.7126 20.4811 42.1673 20.7176 41.5497 20.8753C40.9321 21.0198 40.2685 21.0921 39.559 21.0921C38.8626 21.0921 38.1661 21.0198 37.4697 20.8753C36.7864 20.7307 36.1294 20.5205 35.4987 20.2445C34.8811 19.9555 34.3095 19.6073 33.7839 19.1999L34.7892 17.3077C34.96 17.4786 35.2031 17.6691 35.5184 17.8793C35.8469 18.0764 36.2214 18.267 36.6419 18.4509C37.0755 18.6349 37.542 18.7926 38.0413 18.924C38.5538 19.0422 39.0728 19.1014 39.5984 19.1014C40.4788 19.1014 41.1489 18.9503 41.6088 18.648C42.0819 18.3327 42.3184 17.8859 42.3184 17.3077C42.3184 16.8347 42.1673 16.4602 41.865 16.1843C41.5628 15.8952 41.1226 15.6521 40.5445 15.455C39.9663 15.2579 39.2765 15.0608 38.4749 14.8637C37.5551 14.614 36.7864 14.3447 36.1689 14.0556C35.5513 13.7534 35.0848 13.3723 34.7694 12.9124C34.4672 12.4394 34.3161 11.8415 34.3161 11.1188C34.3161 10.199 34.5395 9.42375 34.9863 8.79303C35.433 8.14917 36.0375 7.66956 36.7996 7.35419C37.5748 7.02569 38.4421 6.86144 39.4013 6.86144C40.032 6.86144 40.6299 6.93371 41.1949 7.07825C41.7599 7.20966 42.2855 7.39362 42.7717 7.63013C43.271 7.86665 43.7244 8.13602 44.1317 8.43825L43.1265 10.2516ZM46.6216 20.9541V10.6458H48.7897V20.9541H46.6216ZM46.6216 8.95071V6.56579H48.7897V8.95071H46.6216ZM55.4751 21.0527C54.7787 21.0527 54.1414 20.9147 53.5632 20.6387C52.9851 20.3497 52.4858 19.962 52.0653 19.4759C51.6579 18.9897 51.336 18.4312 51.0995 17.8005C50.8761 17.1698 50.7644 16.5062 50.7644 15.8098C50.7644 15.0739 50.8827 14.3841 51.1192 13.7402C51.3557 13.0964 51.6842 12.5314 52.1047 12.0452C52.5383 11.5459 53.0442 11.1582 53.6224 10.8823C54.2005 10.6063 54.8444 10.4684 55.554 10.4684C56.3818 10.4684 57.1045 10.6655 57.7221 11.0597C58.3528 11.4539 58.8718 11.9663 59.2791 12.5971V10.6458H61.191V20.6585C61.191 21.6571 60.9479 22.5046 60.4617 23.201C59.9887 23.8975 59.3383 24.4296 58.5105 24.7976C57.6826 25.1655 56.7497 25.3494 55.7116 25.3494C54.5685 25.3494 53.6224 25.1523 52.8734 24.7581C52.1244 24.3639 51.4871 23.8252 50.9615 23.1419L52.1835 21.9987C52.5777 22.5506 53.0836 22.9711 53.7012 23.2602C54.3319 23.5493 55.0021 23.6938 55.7116 23.6938C56.3029 23.6938 56.8482 23.5821 57.3476 23.3587C57.86 23.1485 58.2674 22.8134 58.5696 22.3535C58.8718 21.9068 59.0229 21.3417 59.0229 20.6585V19.0817C58.655 19.6992 58.1491 20.1854 57.5052 20.5402C56.8614 20.8818 56.1847 21.0527 55.4751 21.0527ZM56.1847 19.2985C56.5132 19.2985 56.8285 19.2459 57.1308 19.1408C57.433 19.0225 57.7089 18.8714 57.9586 18.6875C58.2214 18.4904 58.4448 18.2735 58.6287 18.037C58.8127 17.7874 58.9441 17.5246 59.0229 17.2486V14.5483C58.8521 14.1016 58.609 13.714 58.2936 13.3855C57.9783 13.0438 57.6235 12.781 57.2293 12.5971C56.8351 12.4131 56.4343 12.3211 56.027 12.3211C55.554 12.3211 55.1269 12.4262 54.7458 12.6365C54.3779 12.8336 54.0626 13.1029 53.7998 13.4446C53.537 13.7731 53.3333 14.1476 53.1888 14.5681C53.0442 14.9885 52.9719 15.4222 52.9719 15.8689C52.9719 16.342 53.0508 16.7821 53.2085 17.1895C53.3793 17.5968 53.6092 17.9648 53.8983 18.2933C54.1874 18.6086 54.529 18.8583 54.9232 19.0422C55.3174 19.2131 55.7379 19.2985 56.1847 19.2985ZM73.0349 20.9541H70.8668V15.1791C70.8668 14.2198 70.7091 13.5169 70.3937 13.0701C70.0915 12.6233 69.6382 12.4 69.0338 12.4C68.6133 12.4 68.1928 12.5051 67.7723 12.7153C67.365 12.9256 66.9971 13.2146 66.6686 13.5826C66.3401 13.9373 66.1035 14.3512 65.959 14.8243V20.9541H63.7909V10.6458H65.7619V12.7153C66.0247 12.2554 66.3663 11.8612 66.7868 11.5327C67.2204 11.1911 67.7066 10.9283 68.2454 10.7443C68.7841 10.5604 69.3557 10.4684 69.9601 10.4684C70.5777 10.4684 71.0836 10.5801 71.4778 10.8034C71.8851 11.0268 72.2005 11.3356 72.4239 11.7298C72.6604 12.1109 72.8181 12.5576 72.8969 13.0701C72.9889 13.5694 73.0349 14.1016 73.0349 14.6666V20.9541ZM84.0864 10.2516C83.955 10.107 83.7644 9.95592 83.5148 9.79824C83.2651 9.62742 82.9695 9.46974 82.6278 9.3252C82.2862 9.18066 81.9182 9.0624 81.524 8.97042C81.1298 8.87844 80.7225 8.83245 80.302 8.83245C79.3822 8.83245 78.6989 9.00327 78.2522 9.34491C77.8054 9.68655 77.582 10.1596 77.582 10.764C77.582 11.2108 77.7069 11.5656 77.9565 11.8284C78.2062 12.078 78.5873 12.2883 79.0997 12.4591C79.6122 12.6299 80.256 12.8139 81.0313 13.011C81.9774 13.2343 82.7986 13.5037 83.4951 13.8191C84.1915 14.1213 84.7236 14.5286 85.0916 15.0411C85.4595 15.5536 85.6434 16.2303 85.6434 17.0712C85.6434 17.7808 85.512 18.3918 85.2492 18.9043C84.9864 19.4167 84.6185 19.8372 84.1455 20.1657C83.6724 20.4811 83.1271 20.7176 82.5096 20.8753C81.892 21.0198 81.2284 21.0921 80.5188 21.0921C79.8224 21.0921 79.126 21.0198 78.4296 20.8753C77.7463 20.7307 77.0893 20.5205 76.4586 20.2445C75.841 19.9555 75.2694 19.6073 74.7438 19.1999L75.749 17.3077C75.9198 17.4786 76.1629 17.6691 76.4783 17.8793C76.8068 18.0764 77.1813 18.267 77.6018 18.4509C78.0354 18.6349 78.5018 18.7926 79.0012 18.924C79.5136 19.0422 80.0327 19.1014 80.5583 19.1014C81.4386 19.1014 82.1088 18.9503 82.5687 18.648C83.0417 18.3327 83.2782 17.8859 83.2782 17.3077C83.2782 16.8347 83.1271 16.4602 82.8249 16.1843C82.5227 15.8952 82.0825 15.6521 81.5043 15.455C80.9262 15.2579 80.2363 15.0608 79.4348 14.8637C78.515 14.614 77.7463 14.3447 77.1287 14.0556C76.5111 13.7534 76.0447 13.3723 75.7293 12.9124C75.4271 12.4394 75.276 11.8415 75.276 11.1188C75.276 10.199 75.4994 9.42375 75.9461 8.79303C76.3929 8.14917 76.9973 7.66956 77.7594 7.35419C78.5347 7.02569 79.4019 6.86144 80.3612 6.86144C80.9919 6.86144 81.5897 6.93371 82.1548 7.07825C82.7198 7.20966 83.2454 7.39362 83.7316 7.63013C84.2309 7.86665 84.6842 8.13602 85.0916 8.43825L84.0864 10.2516ZM92.2528 21.1512C91.4512 21.1512 90.722 21.0132 90.0649 20.7373C89.4211 20.4482 88.8626 20.0606 88.3896 19.5744C87.9166 19.0751 87.5486 18.5101 87.2858 17.8793C87.0362 17.2355 86.9113 16.5522 86.9113 15.8295C86.9113 14.8571 87.1347 13.9702 87.5815 13.1686C88.0282 12.354 88.6524 11.7035 89.4539 11.2174C90.2555 10.718 91.195 10.4684 92.2725 10.4684C93.35 10.4684 94.2763 10.718 95.0516 11.2174C95.84 11.7035 96.451 12.3474 96.8846 13.1489C97.3182 13.9505 97.535 14.8111 97.535 15.7309C97.535 15.8886 97.5285 16.0397 97.5153 16.1843C97.5022 16.3157 97.4891 16.4274 97.4759 16.5193H89.2174C89.2568 17.1238 89.4211 17.656 89.7102 18.1159C90.0124 18.5626 90.3935 18.9174 90.8534 19.1802C91.3133 19.4299 91.806 19.5547 92.3316 19.5547C92.9098 19.5547 93.4551 19.4102 93.9675 19.1211C94.4931 18.832 94.8479 18.4509 95.0319 17.9779L96.8846 18.5101C96.6612 19.0094 96.3196 19.4627 95.8597 19.8701C95.4129 20.2643 94.8808 20.5796 94.2632 20.8161C93.6456 21.0395 92.9755 21.1512 92.2528 21.1512ZM89.1583 15.0805H95.3867C95.3472 14.4892 95.1764 13.9702 94.8742 13.5234C94.5851 13.0635 94.2106 12.7087 93.7507 12.4591C93.304 12.1963 92.8046 12.0649 92.2528 12.0649C91.714 12.0649 91.2147 12.1963 90.7548 12.4591C90.308 12.7087 89.9401 13.0635 89.651 13.5234C89.362 13.9702 89.1977 14.4892 89.1583 15.0805ZM103.975 21.1512C103.173 21.1512 102.444 21.0132 101.787 20.7373C101.143 20.4482 100.585 20.054 100.112 19.5547C99.6386 19.0554 99.2707 18.4838 99.0079 17.8399C98.7582 17.1961 98.6334 16.5128 98.6334 15.7901C98.6334 14.8177 98.8502 13.9308 99.2838 13.1292C99.7306 12.3277 100.348 11.6838 101.137 11.1976C101.938 10.7115 102.884 10.4684 103.975 10.4684C105.026 10.4684 105.939 10.7049 106.715 11.1779C107.503 11.6378 108.081 12.2554 108.449 13.0307L106.34 13.7008C106.104 13.2672 105.768 12.9321 105.335 12.6956C104.914 12.4459 104.448 12.3211 103.935 12.3211C103.357 12.3211 102.832 12.4722 102.359 12.7744C101.899 13.0635 101.531 13.4709 101.255 13.9965C100.992 14.5089 100.861 15.1068 100.861 15.7901C100.861 16.4471 100.999 17.0449 101.275 17.5837C101.55 18.1093 101.918 18.5298 102.378 18.8451C102.851 19.1474 103.377 19.2985 103.955 19.2985C104.31 19.2985 104.652 19.2393 104.98 19.1211C105.322 18.9897 105.617 18.8189 105.867 18.6086C106.117 18.3852 106.294 18.1421 106.399 17.8793L108.528 18.5101C108.304 19.0225 107.969 19.4759 107.523 19.8701C107.089 20.2643 106.57 20.5796 105.966 20.8161C105.374 21.0395 104.711 21.1512 103.975 21.1512ZM110.215 16.953V10.6458H112.383V16.5193C112.383 17.4391 112.547 18.1356 112.876 18.6086C113.217 19.0685 113.71 19.2985 114.354 19.2985C114.761 19.2985 115.156 19.2131 115.537 19.0422C115.931 18.8714 116.286 18.6218 116.601 18.2933C116.929 17.9516 117.192 17.5443 117.389 17.0712V10.6458H119.557V18.5101C119.557 18.7597 119.603 18.9371 119.695 19.0422C119.787 19.1474 119.938 19.2065 120.149 19.2196V20.9541C119.925 20.9935 119.741 21.0198 119.597 21.0329C119.452 21.0461 119.314 21.0527 119.183 21.0527C118.789 21.0527 118.46 20.9475 118.197 20.7373C117.935 20.5139 117.784 20.2314 117.744 19.8898L117.705 18.8648C117.245 19.6138 116.647 20.1854 115.911 20.5796C115.175 20.9607 114.367 21.1512 113.487 21.1512C112.409 21.1512 111.595 20.7964 111.043 20.0869C110.491 19.3773 110.215 18.3327 110.215 16.953ZM128.119 12.5182C127.278 12.5314 126.529 12.7219 125.872 13.0898C125.228 13.4577 124.768 13.9768 124.492 14.6469V20.9541H122.324V10.6458H124.335V12.9518C124.689 12.2423 125.156 11.6773 125.734 11.2568C126.312 10.8232 126.923 10.5866 127.567 10.5472C127.698 10.5472 127.804 10.5472 127.882 10.5472C127.974 10.5472 128.053 10.5538 128.119 10.5669V12.5182ZM134.194 21.1512C133.393 21.1512 132.663 21.0132 132.006 20.7373C131.363 20.4482 130.804 20.0606 130.331 19.5744C129.858 19.0751 129.49 18.5101 129.227 17.8793C128.978 17.2355 128.853 16.5522 128.853 15.8295C128.853 14.8571 129.076 13.9702 129.523 13.1686C129.97 12.354 130.594 11.7035 131.395 11.2174C132.197 10.718 133.137 10.4684 134.214 10.4684C135.291 10.4684 136.218 10.718 136.993 11.2174C137.781 11.7035 138.393 12.3474 138.826 13.1489C139.26 13.9505 139.477 14.8111 139.477 15.7309C139.477 15.8886 139.47 16.0397 139.457 16.1843C139.444 16.3157 139.431 16.4274 139.417 16.5193H131.159C131.198 17.1238 131.363 17.656 131.652 18.1159C131.954 18.5626 132.335 18.9174 132.795 19.1802C133.255 19.4299 133.748 19.5547 134.273 19.5547C134.851 19.5547 135.397 19.4102 135.909 19.1211C136.435 18.832 136.789 18.4509 136.973 17.9779L138.826 18.5101C138.603 19.0094 138.261 19.4627 137.801 19.8701C137.354 20.2643 136.822 20.5796 136.205 20.8161C135.587 21.0395 134.917 21.1512 134.194 21.1512ZM131.1 15.0805H137.328C137.289 14.4892 137.118 13.9702 136.816 13.5234C136.527 13.0635 136.152 12.7087 135.692 12.4591C135.245 12.1963 134.746 12.0649 134.194 12.0649C133.656 12.0649 133.156 12.1963 132.696 12.4591C132.25 12.7087 131.882 13.0635 131.593 13.5234C131.303 13.9702 131.139 14.4892 131.1 15.0805Z" fill="white"/>
<path fill-rule="evenodd" clip-rule="evenodd" d="M24.299 14.4541C25.8488 12.8409 26.5889 10.5157 26.5889 8.61523C26.5889 5.3472 24.4004 0.823242 19.6694 0.823242C16.6532 0.823242 14.6705 2.66205 13.6294 4.84189C12.5883 2.66205 10.6055 0.823242 7.58936 0.823242C2.85839 0.823242 0.669922 5.3472 0.669922 8.61523C0.669922 10.5157 1.41001 12.8409 2.9598 14.4541C1.41001 16.0673 0.669922 18.3925 0.669922 20.293C0.669922 23.561 2.85839 28.085 7.58936 28.085C10.6055 28.085 12.5883 26.2462 13.6294 24.0663C14.6705 26.2462 16.6532 28.085 19.6694 28.085C24.4004 28.085 26.5889 23.561 26.5889 20.293C26.5889 18.3925 25.8488 16.0673 24.299 14.4541ZM12.2189 14.4541C12.8027 15.0618 13.2717 15.7706 13.6294 16.5196C13.9871 15.7706 14.456 15.0618 15.0399 14.4541C14.456 13.8464 13.9871 13.1376 13.6294 12.3886C13.2717 13.1376 12.8027 13.8464 12.2189 14.4541ZM7.58936 12.4072C8.70588 12.4072 9.67602 11.5931 10.1671 10.397H17.0917C17.5828 11.5931 18.5529 12.4072 19.6694 12.4072C21.2818 12.4072 22.5889 10.7095 22.5889 8.61523C22.5889 6.52098 21.2818 4.82324 19.6694 4.82324C18.5528 4.82324 17.5826 5.63747 17.0916 6.83374H10.1672C9.67615 5.63747 8.70596 4.82324 7.58936 4.82324C5.977 4.82324 4.66992 6.52098 4.66992 8.61523C4.66992 10.7095 5.977 12.4072 7.58936 12.4072ZM7.58936 24.085C8.70588 24.085 9.67602 23.2708 10.1671 22.0747H17.0917C17.5828 23.2708 18.5529 24.085 19.6694 24.085C21.2818 24.085 22.5889 22.3872 22.5889 20.293C22.5889 18.1987 21.2818 16.501 19.6694 16.501C18.5528 16.501 17.5826 17.3152 17.0916 18.5115H10.1672C9.67615 17.3152 8.70596 16.501 7.58936 16.501C5.977 16.501 4.66992 18.1987 4.66992 20.293C4.66992 22.3872 5.977 24.085 7.58936 24.085Z" fill="white"/>
<path d="M11.1797 11.5967H16.75V16.978H11.1797V11.5967Z" fill="white"/>
</svg>
