<svg width="141" height="28" viewBox="0 0 141 28" fill="none" xmlns="http://www.w3.org/2000/svg">
<path d="M43.0816 9.62071C42.9502 9.47617 42.7596 9.32506 42.51 9.16738C42.2603 8.99656 41.9647 8.83888 41.623 8.69434C41.2814 8.5498 40.9135 8.43154 40.5193 8.33956C40.1251 8.24758 39.7177 8.20159 39.2972 8.20159C38.3774 8.20159 37.6942 8.37241 37.2474 8.71405C36.8006 9.05569 36.5773 9.52873 36.5773 10.1332C36.5773 10.5799 36.7021 10.9347 36.9518 11.1975C37.2014 11.4472 37.5825 11.6574 38.0949 11.8282C38.6074 11.999 39.2513 12.183 40.0265 12.3801C40.9726 12.6035 41.7938 12.8729 42.4903 13.1882C43.1867 13.4904 43.7189 13.8978 44.0868 14.4102C44.4547 14.9227 44.6387 15.5994 44.6387 16.4404C44.6387 17.1499 44.5073 17.7609 44.2445 18.2734C43.9817 18.7859 43.6137 19.2063 43.1407 19.5348C42.6677 19.8502 42.1223 20.0867 41.5048 20.2444C40.8872 20.3889 40.2236 20.4612 39.5141 20.4612C38.8176 20.4612 38.1212 20.3889 37.4248 20.2444C36.7415 20.0999 36.0845 19.8896 35.4538 19.6137C34.8362 19.3246 34.2646 18.9764 33.739 18.5691L34.7442 16.6769C34.9151 16.8477 35.1581 17.0382 35.4735 17.2485C35.802 17.4456 36.1765 17.6361 36.597 17.8201C37.0306 18.004 37.4971 18.1617 37.9964 18.2931C38.5088 18.4114 39.0279 18.4705 39.5535 18.4705C40.4339 18.4705 41.104 18.3194 41.5639 18.0172C42.0369 17.7018 42.2735 17.2551 42.2735 16.6769C42.2735 16.2039 42.1223 15.8294 41.8201 15.5534C41.5179 15.2643 41.0777 15.0212 40.4996 14.8241C39.9214 14.627 39.2315 14.4299 38.43 14.2328C37.5102 13.9832 36.7415 13.7138 36.1239 13.4247C35.5064 13.1225 35.0399 12.7415 34.7245 12.2816C34.4223 11.8085 34.2712 11.2106 34.2712 10.4879C34.2712 9.56815 34.4946 8.79289 34.9413 8.16217C35.3881 7.51831 35.9925 7.0387 36.7547 6.72334C37.5299 6.39484 38.3972 6.23059 39.3564 6.23059C39.9871 6.23059 40.585 6.30286 41.15 6.4474C41.715 6.5788 42.2406 6.76276 42.7268 6.99928C43.2261 7.2358 43.6794 7.50517 44.0868 7.80739L43.0816 9.62071ZM46.5767 20.3232V10.0149H48.7448V20.3232H46.5767ZM46.5767 8.31985V5.93494H48.7448V8.31985H46.5767ZM55.4302 20.4218C54.7338 20.4218 54.0965 20.2838 53.5183 20.0079C52.9402 19.7188 52.4408 19.3312 52.0204 18.845C51.613 18.3588 51.2911 17.8004 51.0546 17.1696C50.8312 16.5389 50.7195 15.8754 50.7195 15.1789C50.7195 14.4431 50.8378 13.7532 51.0743 13.1094C51.3108 12.4655 51.6393 11.9005 52.0598 11.4143C52.4934 10.915 52.9993 10.5274 53.5775 10.2514C54.1556 9.97549 54.7995 9.83752 55.509 9.83752C56.3369 9.83752 57.0596 10.0346 57.6771 10.4288C58.3079 10.823 58.8269 11.3355 59.2342 11.9662V10.0149H61.1461V20.0276C61.1461 21.0262 60.903 21.8738 60.4168 22.5702C59.9438 23.2666 59.2934 23.7988 58.4655 24.1667C57.6377 24.5346 56.7048 24.7186 55.6667 24.7186C54.5235 24.7186 53.5775 24.5215 52.8285 24.1273C52.0795 23.7331 51.4422 23.1943 50.9166 22.5111L52.1386 21.3679C52.5328 21.9198 53.0387 22.3402 53.6563 22.6293C54.287 22.9184 54.9572 23.0629 55.6667 23.0629C56.258 23.0629 56.8033 22.9512 57.3026 22.7279C57.8151 22.5176 58.2224 22.1826 58.5247 21.7227C58.8269 21.2759 58.978 20.7109 58.978 20.0276V18.4508C58.6101 19.0684 58.1042 19.5546 57.4603 19.9093C56.8165 20.251 56.1398 20.4218 55.4302 20.4218ZM56.1398 18.6676C56.4683 18.6676 56.7836 18.615 57.0858 18.5099C57.3881 18.3917 57.664 18.2406 57.9137 18.0566C58.1765 17.8595 58.3998 17.6427 58.5838 17.4062C58.7678 17.1565 58.8992 16.8937 58.978 16.6178V13.9175C58.8072 13.4707 58.5641 13.0831 58.2487 12.7546C57.9334 12.413 57.5786 12.1502 57.1844 11.9662C56.7902 11.7822 56.3894 11.6903 55.9821 11.6903C55.509 11.6903 55.082 11.7954 54.7009 12.0056C54.333 12.2027 54.0176 12.4721 53.7548 12.8137C53.492 13.1422 53.2884 13.5167 53.1438 13.9372C52.9993 14.3577 52.927 14.7913 52.927 15.2381C52.927 15.7111 53.0059 16.1513 53.1635 16.5586C53.3344 16.966 53.5643 17.3339 53.8534 17.6624C54.1425 17.9778 54.4841 18.2274 54.8783 18.4114C55.2725 18.5822 55.693 18.6676 56.1398 18.6676ZM72.99 20.3232H70.8219V14.5482C70.8219 13.589 70.6642 12.886 70.3488 12.4392C70.0466 11.9925 69.5933 11.7691 68.9888 11.7691C68.5684 11.7691 68.1479 11.8742 67.7274 12.0845C67.3201 12.2947 66.9521 12.5838 66.6236 12.9517C66.2951 13.3065 66.0586 13.7204 65.9141 14.1934V20.3232H63.746V10.0149H65.717V12.0845C65.9798 11.6246 66.3214 11.2304 66.7419 10.9019C67.1755 10.5602 67.6617 10.2974 68.2004 10.1135C68.7392 9.9295 69.3108 9.83752 69.9152 9.83752C70.5328 9.83752 71.0387 9.94921 71.4329 10.1726C71.8402 10.396 72.1556 10.7048 72.379 11.099C72.6155 11.48 72.7732 11.9268 72.852 12.4392C72.944 12.9386 72.99 13.4707 72.99 14.0357V20.3232ZM84.0414 9.62071C83.91 9.47617 83.7195 9.32506 83.4698 9.16738C83.2202 8.99656 82.9245 8.83888 82.5829 8.69434C82.2412 8.5498 81.8733 8.43154 81.4791 8.33956C81.0849 8.24758 80.6776 8.20159 80.2571 8.20159C79.3373 8.20159 78.654 8.37241 78.2073 8.71405C77.7605 9.05569 77.5371 9.52873 77.5371 10.1332C77.5371 10.5799 77.662 10.9347 77.9116 11.1975C78.1613 11.4472 78.5423 11.6574 79.0548 11.8282C79.5673 11.999 80.2111 12.183 80.9864 12.3801C81.9325 12.6035 82.7537 12.8729 83.4501 13.1882C84.1465 13.4904 84.6787 13.8978 85.0466 14.4102C85.4146 14.9227 85.5985 15.5994 85.5985 16.4404C85.5985 17.1499 85.4671 17.7609 85.2043 18.2734C84.9415 18.7859 84.5736 19.2063 84.1006 19.5348C83.6275 19.8502 83.0822 20.0867 82.4646 20.2444C81.847 20.3889 81.1835 20.4612 80.4739 20.4612C79.7775 20.4612 79.0811 20.3889 78.3847 20.2444C77.7014 20.0999 77.0444 19.8896 76.4137 19.6137C75.7961 19.3246 75.2245 18.9764 74.6989 18.5691L75.7041 16.6769C75.8749 16.8477 76.118 17.0382 76.4334 17.2485C76.7619 17.4456 77.1364 17.6361 77.5568 17.8201C77.9905 18.004 78.4569 18.1617 78.9562 18.2931C79.4687 18.4114 79.9877 18.4705 80.5133 18.4705C81.3937 18.4705 82.0639 18.3194 82.5238 18.0172C82.9968 17.7018 83.2333 17.2551 83.2333 16.6769C83.2333 16.2039 83.0822 15.8294 82.78 15.5534C82.4778 15.2643 82.0376 15.0212 81.4594 14.8241C80.8813 14.627 80.1914 14.4299 79.3899 14.2328C78.4701 13.9832 77.7014 13.7138 77.0838 13.4247C76.4662 13.1225 75.9997 12.7415 75.6844 12.2816C75.3822 11.8085 75.2311 11.2106 75.2311 10.4879C75.2311 9.56815 75.4544 8.79289 75.9012 8.16217C76.348 7.51831 76.9524 7.0387 77.7145 6.72334C78.4898 6.39484 79.357 6.23059 80.3162 6.23059C80.947 6.23059 81.5448 6.30286 82.1098 6.4474C82.6749 6.5788 83.2005 6.76276 83.6866 6.99928C84.186 7.2358 84.6393 7.50517 85.0466 7.80739L84.0414 9.62071ZM92.2078 20.5203C91.4063 20.5203 90.677 20.3824 90.02 20.1064C89.3762 19.8174 88.8177 19.4297 88.3447 18.9435C87.8716 18.4442 87.5037 17.8792 87.2409 17.2485C86.9913 16.6046 86.8664 15.9213 86.8664 15.1986C86.8664 14.2263 87.0898 13.3393 87.5366 12.5378C87.9833 11.7231 88.6075 11.0727 89.409 10.5865C90.2106 10.0872 91.1501 9.83752 92.2275 9.83752C93.305 9.83752 94.2314 10.0872 95.0067 10.5865C95.7951 11.0727 96.4061 11.7165 96.8397 12.5181C97.2733 13.3196 97.4901 14.1803 97.4901 15.1001C97.4901 15.2578 97.4836 15.4089 97.4704 15.5534C97.4573 15.6848 97.4441 15.7965 97.431 15.8885H89.1725C89.2119 16.4929 89.3762 17.0251 89.6652 17.485C89.9675 17.9318 90.3485 18.2865 90.8084 18.5493C91.2683 18.799 91.7611 18.9238 92.2867 18.9238C92.8648 18.9238 93.4101 18.7793 93.9226 18.4902C94.4482 18.2011 94.803 17.8201 94.987 17.347L96.8397 17.8792C96.6163 18.3785 96.2747 18.8319 95.8148 19.2392C95.368 19.6334 94.8358 19.9488 94.2183 20.1853C93.6007 20.4087 92.9305 20.5203 92.2078 20.5203ZM89.1134 14.4497H95.3417C95.3023 13.8584 95.1315 13.3393 94.8293 12.8926C94.5402 12.4327 94.1657 12.0779 93.7058 11.8282C93.259 11.5654 92.7597 11.434 92.2078 11.434C91.6691 11.434 91.1698 11.5654 90.7099 11.8282C90.2631 12.0779 89.8952 12.4327 89.6061 12.8926C89.317 13.3393 89.1528 13.8584 89.1134 14.4497ZM103.93 20.5203C103.128 20.5203 102.399 20.3824 101.742 20.1064C101.098 19.8174 100.54 19.4232 100.067 18.9238C99.5937 18.4245 99.2258 17.8529 98.963 17.2091C98.7133 16.5652 98.5885 15.8819 98.5885 15.1592C98.5885 14.1869 98.8053 13.2999 99.2389 12.4984C99.6857 11.6968 100.303 11.053 101.092 10.5668C101.893 10.0806 102.839 9.83752 103.93 9.83752C104.981 9.83752 105.894 10.074 106.67 10.5471C107.458 11.007 108.036 11.6246 108.404 12.3998L106.295 13.07C106.059 12.6363 105.724 12.3013 105.29 12.0647C104.869 11.8151 104.403 11.6903 103.89 11.6903C103.312 11.6903 102.787 11.8414 102.314 12.1436C101.854 12.4327 101.486 12.84 101.21 13.3656C100.947 13.8781 100.816 14.4759 100.816 15.1592C100.816 15.8162 100.954 16.4141 101.23 16.9528C101.506 17.4784 101.873 17.8989 102.333 18.2143C102.806 18.5165 103.332 18.6676 103.91 18.6676C104.265 18.6676 104.607 18.6085 104.935 18.4902C105.277 18.3588 105.572 18.188 105.822 17.9778C106.072 17.7544 106.249 17.5113 106.354 17.2485L108.483 17.8792C108.26 18.3917 107.924 18.845 107.478 19.2392C107.044 19.6334 106.525 19.9488 105.921 20.1853C105.329 20.4087 104.666 20.5203 103.93 20.5203ZM110.17 16.3221V10.0149H112.338V15.8885C112.338 16.8083 112.502 17.5047 112.831 17.9778C113.172 18.4377 113.665 18.6676 114.309 18.6676C114.716 18.6676 115.111 18.5822 115.492 18.4114C115.886 18.2406 116.241 17.9909 116.556 17.6624C116.885 17.3208 117.147 16.9134 117.344 16.4404V10.0149H119.513V17.8792C119.513 18.1289 119.559 18.3063 119.65 18.4114C119.742 18.5165 119.894 18.5756 120.104 18.5888V20.3232C119.88 20.3627 119.696 20.3889 119.552 20.4021C119.407 20.4152 119.269 20.4218 119.138 20.4218C118.744 20.4218 118.415 20.3167 118.153 20.1064C117.89 19.8831 117.739 19.6005 117.699 19.2589L117.66 18.234C117.2 18.983 116.602 19.5546 115.866 19.9488C115.13 20.3298 114.322 20.5203 113.442 20.5203C112.364 20.5203 111.55 20.1656 110.998 19.456C110.446 18.7464 110.17 17.7018 110.17 16.3221ZM128.074 11.8874C127.233 11.9005 126.484 12.091 125.827 12.4589C125.183 12.8269 124.723 13.3459 124.447 14.016V20.3232H122.279V10.0149H124.29V12.321C124.645 11.6114 125.111 11.0464 125.689 10.6259C126.267 10.1923 126.878 9.95578 127.522 9.91636C127.654 9.91636 127.759 9.91636 127.838 9.91636C127.93 9.91636 128.008 9.92293 128.074 9.93607V11.8874ZM134.149 20.5203C133.348 20.5203 132.619 20.3824 131.962 20.1064C131.318 19.8174 130.759 19.4297 130.286 18.9435C129.813 18.4442 129.445 17.8792 129.182 17.2485C128.933 16.6046 128.808 15.9213 128.808 15.1986C128.808 14.2263 129.031 13.3393 129.478 12.5378C129.925 11.7231 130.549 11.0727 131.351 10.5865C132.152 10.0872 133.092 9.83752 134.169 9.83752C135.247 9.83752 136.173 10.0872 136.948 10.5865C137.737 11.0727 138.348 11.7165 138.781 12.5181C139.215 13.3196 139.432 14.1803 139.432 15.1001C139.432 15.2578 139.425 15.4089 139.412 15.5534C139.399 15.6848 139.386 15.7965 139.373 15.8885H131.114C131.153 16.4929 131.318 17.0251 131.607 17.485C131.909 17.9318 132.29 18.2865 132.75 18.5493C133.21 18.799 133.703 18.9238 134.228 18.9238C134.806 18.9238 135.352 18.7793 135.864 18.4902C136.39 18.2011 136.745 17.8201 136.928 17.347L138.781 17.8792C138.558 18.3785 138.216 18.8319 137.756 19.2392C137.31 19.6334 136.777 19.9488 136.16 20.1853C135.542 20.4087 134.872 20.5203 134.149 20.5203ZM131.055 14.4497H137.283C137.244 13.8584 137.073 13.3393 136.771 12.8926C136.482 12.4327 136.107 12.0779 135.647 11.8282C135.201 11.5654 134.701 11.434 134.149 11.434C133.611 11.434 133.111 11.5654 132.651 11.8282C132.205 12.0779 131.837 12.4327 131.548 12.8926C131.259 13.3393 131.094 13.8584 131.055 14.4497Z" fill="black"/>
<path fill-rule="evenodd" clip-rule="evenodd" d="M24.2541 13.8232C25.8039 12.21 26.5439 9.88483 26.5439 7.98438C26.5439 4.71634 24.3555 0.192383 19.6245 0.192383C16.6083 0.192383 14.6256 2.03119 13.5845 4.21103C12.5434 2.03119 10.5606 0.192383 7.54443 0.192383C2.81346 0.192383 0.625 4.71634 0.625 7.98438C0.625 9.88483 1.36508 12.21 2.91488 13.8232C1.36508 15.4365 0.625 17.7617 0.625 19.6621C0.625 22.9301 2.81346 27.4541 7.54443 27.4541C10.5606 27.4541 12.5434 25.6153 13.5845 23.4355C14.6256 25.6153 16.6083 27.4541 19.6245 27.4541C24.3555 27.4541 26.5439 22.9301 26.5439 19.6621C26.5439 17.7617 25.8039 15.4365 24.2541 13.8232ZM12.174 13.8232C12.7578 14.431 13.2267 15.1397 13.5845 15.8888C13.9422 15.1397 14.4111 14.431 14.995 13.8232C14.4111 13.2155 13.9422 12.5068 13.5845 11.7577C13.2267 12.5068 12.7578 13.2155 12.174 13.8232ZM7.54443 11.7764C8.66096 11.7764 9.6311 10.9623 10.1222 9.76611H17.0468C17.5379 10.9623 18.508 11.7764 19.6245 11.7764C21.2369 11.7764 22.5439 10.0786 22.5439 7.98438C22.5439 5.89012 21.2369 4.19238 19.6245 4.19238C18.5079 4.19238 17.5377 5.00661 17.0467 6.20288H10.1223C9.63123 5.00661 8.66104 4.19238 7.54443 4.19238C5.93208 4.19238 4.625 5.89012 4.625 7.98438C4.625 10.0786 5.93208 11.7764 7.54443 11.7764ZM7.54443 23.4541C8.66096 23.4541 9.6311 22.64 10.1222 21.4438H17.0468C17.5379 22.64 18.508 23.4541 19.6245 23.4541C21.2369 23.4541 22.5439 21.7564 22.5439 19.6621C22.5439 17.5679 21.2369 15.8701 19.6245 15.8701C18.5079 15.8701 17.5377 16.6843 17.0467 17.8806H10.1223C9.63123 16.6843 8.66104 15.8701 7.54443 15.8701C5.93208 15.8701 4.625 17.5679 4.625 19.6621C4.625 21.7564 5.93208 23.4541 7.54443 23.4541Z" fill="#534EE8"/>
<path d="M11.1348 10.9658H16.7051V16.3472H11.1348V10.9658Z" fill="#534EE8"/>
</svg>
